{
    "asset" : {
        "generator" : "Khronos glTF Blender I/O v1.4.40",
        "version" : "2.0"
    },
    "scene" : 0,
    "scenes" : [
        {
            "name" : "Scene",
            "nodes" : [
                2,
                3
            ]
        }
    ],
    "nodes" : [
        {
            "mesh" : 0,
            "name" : "Sail Pole",
            "translation" : [
                0,
                8.941659927368164,
                0.3583531379699707
            ]
        },
        {
            "children" : [
                0
            ],
            "mesh" : 1,
            "name" : "Mast main",
            "translation" : [
                0,
                2.0268664360046387,
                4.073103427886963
            ]
        },
        {
            "children" : [
                1
            ],
            "mesh" : 2,
            "name" : "Cube"
        },
        {
            "mesh" : 3,
            "name" : "Plane",
            "translation" : [
                0,
                10.910592079162598,
                4.431456565856934
            ]
        }
    ],
    "materials" : [
        {
            "doubleSided" : true,
            "name" : "Material.001",
            "pbrMetallicRoughness" : {
                "baseColorFactor" : [
                    0.14731425046920776,
                    0.01803753152489662,
                    0.007673103362321854,
                    1
                ],
                "metallicFactor" : 0,
                "roughnessFactor" : 0.5
            }
        },
        {
            "doubleSided" : true,
            "name" : "Material.002",
            "pbrMetallicRoughness" : {
                "baseColorFactor" : [
                    0.038610491901636124,
                    0.8000000715255737,
                    0,
                    1
                ],
                "metallicFactor" : 0,
                "roughnessFactor" : 0.5
            }
        }
    ],
    "meshes" : [
        {
            "name" : "Cylinder.001",
            "primitives" : [
                {
                    "attributes" : {
                        "POSITION" : 0,
                        "NORMAL" : 1,
                        "TEXCOORD_0" : 2
                    },
                    "indices" : 3,
                    "material" : 0
                }
            ]
        },
        {
            "name" : "Cylinder",
            "primitives" : [
                {
                    "attributes" : {
                        "POSITION" : 4,
                        "NORMAL" : 5,
                        "TEXCOORD_0" : 6
                    },
                    "indices" : 7,
                    "material" : 0
                }
            ]
        },
        {
            "name" : "Cube.001",
            "primitives" : [
                {
                    "attributes" : {
                        "POSITION" : 8,
                        "NORMAL" : 9,
                        "TEXCOORD_0" : 10
                    },
                    "indices" : 11,
                    "material" : 0
                }
            ]
        },
        {
            "extras" : {
                "targetNames" : [
                    "Key 1"
                ]
            },
            "name" : "Plane",
            "primitives" : [
                {
                    "attributes" : {
                        "POSITION" : 12,
                        "NORMAL" : 13,
                        "TEXCOORD_0" : 14
                    },
                    "indices" : 15,
                    "material" : 1,
                    "targets" : [
                        {
                            "POSITION" : 16,
                            "NORMAL" : 17
                        }
                    ]
                }
            ],
            "weights" : [
                1
            ]
        }
    ],
    "accessors" : [
        {
            "bufferView" : 0,
            "componentType" : 5126,
            "count" : 48,
            "max" : [
                3.2561774253845215,
                0.19736871123313904,
                0.1973683089017868
            ],
            "min" : [
                -3.2561774253845215,
                -0.19736871123313904,
                -0.19736869633197784
            ],
            "type" : "VEC3"
        },
        {
            "bufferView" : 1,
            "componentType" : 5126,
            "count" : 48,
            "type" : "VEC3"
        },
        {
            "bufferView" : 2,
            "componentType" : 5126,
            "count" : 48,
            "type" : "VEC2"
        },
        {
            "bufferView" : 3,
            "componentType" : 5123,
            "count" : 84,
            "type" : "SCALAR"
        },
        {
            "bufferView" : 4,
            "componentType" : 5126,
            "count" : 176,
            "max" : [
                0.249008446931839,
                13.614405632019043,
                0.24900886416435242
            ],
            "min" : [
                -0.24900859594345093,
                -0.4317159950733185,
                -0.2490081787109375
            ],
            "type" : "VEC3"
        },
        {
            "bufferView" : 5,
            "componentType" : 5126,
            "count" : 176,
            "type" : "VEC3"
        },
        {
            "bufferView" : 6,
            "componentType" : 5126,
            "count" : 176,
            "type" : "VEC2"
        },
        {
            "bufferView" : 7,
            "componentType" : 5123,
            "count" : 276,
            "type" : "SCALAR"
        },
        {
            "bufferView" : 8,
            "componentType" : 5126,
            "count" : 1189,
            "max" : [
                2.733376979827881,
                4.597923755645752,
                11.223448753356934
            ],
            "min" : [
                -2.733376979827881,
                -1.7611329555511475,
                -9.224230766296387
            ],
            "type" : "VEC3"
        },
        {
            "bufferView" : 9,
            "componentType" : 5126,
            "count" : 1189,
            "type" : "VEC3"
        },
        {
            "bufferView" : 10,
            "componentType" : 5126,
            "count" : 1189,
            "type" : "VEC2"
        },
        {
            "bufferView" : 11,
            "componentType" : 5123,
            "count" : 1926,
            "type" : "SCALAR"
        },
        {
            "bufferView" : 12,
            "componentType" : 5126,
            "count" : 4,
            "max" : [
                3.0416855812072754,
                0.09057903289794922,
                2.2805932076153113e-07
            ],
            "min" : [
                -3.0416855812072754,
                -0.6329531669616699,
                -2.2805932076153113e-07
            ],
            "type" : "VEC3"
        },
        {
            "bufferView" : 13,
            "componentType" : 5126,
            "count" : 4,
            "type" : "VEC3"
        },
        {
            "bufferView" : 14,
            "componentType" : 5126,
            "count" : 4,
            "type" : "VEC2"
        },
        {
            "bufferView" : 15,
            "componentType" : 5123,
            "count" : 6,
            "type" : "SCALAR"
        },
        {
            "bufferView" : 16,
            "componentType" : 5126,
            "count" : 4,
            "max" : [
                0,
                0,
                0
            ],
            "min" : [
                0,
                -5.120840072631836,
                0
            ],
            "type" : "VEC3"
        },
        {
            "bufferView" : 17,
            "componentType" : 5126,
            "count" : 4,
            "type" : "VEC3"
        }
    ],
    "bufferViews" : [
        {
            "buffer" : 0,
            "byteLength" : 576,
            "byteOffset" : 0
        },
        {
            "buffer" : 0,
            "byteLength" : 576,
            "byteOffset" : 576
        },
        {
            "buffer" : 0,
            "byteLength" : 384,
            "byteOffset" : 1152
        },
        {
            "buffer" : 0,
            "byteLength" : 168,
            "byteOffset" : 1536
        },
        {
            "buffer" : 0,
            "byteLength" : 2112,
            "byteOffset" : 1704
        },
        {
            "buffer" : 0,
            "byteLength" : 2112,
            "byteOffset" : 3816
        },
        {
            "buffer" : 0,
            "byteLength" : 1408,
            "byteOffset" : 5928
        },
        {
            "buffer" : 0,
            "byteLength" : 552,
            "byteOffset" : 7336
        },
        {
            "buffer" : 0,
            "byteLength" : 14268,
            "byteOffset" : 7888
        },
        {
            "buffer" : 0,
            "byteLength" : 14268,
            "byteOffset" : 22156
        },
        {
            "buffer" : 0,
            "byteLength" : 9512,
            "byteOffset" : 36424
        },
        {
            "buffer" : 0,
            "byteLength" : 3852,
            "byteOffset" : 45936
        },
        {
            "buffer" : 0,
            "byteLength" : 48,
            "byteOffset" : 49788
        },
        {
            "buffer" : 0,
            "byteLength" : 48,
            "byteOffset" : 49836
        },
        {
            "buffer" : 0,
            "byteLength" : 32,
            "byteOffset" : 49884
        },
        {
            "buffer" : 0,
            "byteLength" : 12,
            "byteOffset" : 49916
        },
        {
            "buffer" : 0,
            "byteLength" : 48,
            "byteOffset" : 49928
        },
        {
            "buffer" : 0,
            "byteLength" : 48,
            "byteOffset" : 49976
        }
    ],
    "buffers" : [
        {
            "byteLength" : 50024,
            "uri" : "data:application/octet-stream;base64,"
        }
    ]
}
